<mxfile host="Electron" agent="Mozilla/5.0 (Macintosh; Intel Mac OS X 10_15_7) AppleWebKit/537.36 (KHTML, like Gecko) draw.io/26.1.1 Chrome/132.0.6834.210 Electron/34.3.3 Safari/537.36" version="26.1.1">
  <diagram name="Page-1" id="NtG0qTXubIzRzJ-LV-hP">
    <mxGraphModel dx="977" dy="768" grid="1" gridSize="10" guides="1" tooltips="1" connect="1" arrows="1" fold="1" page="1" pageScale="1" pageWidth="850" pageHeight="1100" math="1" shadow="0">
      <root>
        <mxCell id="0" />
        <mxCell id="1" parent="0" />
        <mxCell id="6nhi8PqKssiMJ2r7n0zs-5" value="" style="ellipse;shape=cloud;whiteSpace=wrap;html=1;fillColor=#f5f5f5;fontColor=#333333;strokeColor=#666666;" parent="1" vertex="1">
          <mxGeometry x="80" y="272.5" width="275" height="190" as="geometry" />
        </mxCell>
        <mxCell id="6nhi8PqKssiMJ2r7n0zs-6" style="edgeStyle=orthogonalEdgeStyle;rounded=0;orthogonalLoop=1;jettySize=auto;html=1;" parent="1" source="6nhi8PqKssiMJ2r7n0zs-5" target="6nhi8PqKssiMJ2r7n0zs-7" edge="1">
          <mxGeometry relative="1" as="geometry">
            <mxPoint x="490" y="367.5" as="targetPoint" />
          </mxGeometry>
        </mxCell>
        <mxCell id="6nhi8PqKssiMJ2r7n0zs-9" style="edgeStyle=orthogonalEdgeStyle;rounded=1;orthogonalLoop=1;jettySize=auto;html=1;curved=0;entryX=-0.021;entryY=0.512;entryDx=0;entryDy=0;entryPerimeter=0;" parent="1" source="6nhi8PqKssiMJ2r7n0zs-7" target="6nhi8PqKssiMJ2r7n0zs-11" edge="1">
          <mxGeometry relative="1" as="geometry">
            <mxPoint x="660" y="340" as="targetPoint" />
          </mxGeometry>
        </mxCell>
        <mxCell id="6nhi8PqKssiMJ2r7n0zs-10" style="edgeStyle=orthogonalEdgeStyle;rounded=1;orthogonalLoop=1;jettySize=auto;html=1;curved=0;entryX=-0.011;entryY=0.438;entryDx=0;entryDy=0;entryPerimeter=0;" parent="1" source="6nhi8PqKssiMJ2r7n0zs-7" target="6nhi8PqKssiMJ2r7n0zs-12" edge="1">
          <mxGeometry relative="1" as="geometry">
            <mxPoint x="660" y="390" as="targetPoint" />
          </mxGeometry>
        </mxCell>
        <mxCell id="6nhi8PqKssiMJ2r7n0zs-7" value="Isolation Model" style="rounded=1;whiteSpace=wrap;html=1;fontFamily=Lucida Console;fontSize=14;" parent="1" vertex="1">
          <mxGeometry x="390" y="337.5" width="120" height="60" as="geometry" />
        </mxCell>
        <mxCell id="6nhi8PqKssiMJ2r7n0zs-11" value="Satisfied" style="rounded=1;whiteSpace=wrap;html=1;fillColor=#d5e8d4;strokeColor=#82b366;fontFamily=Lucida Console;fontSize=14;" parent="1" vertex="1">
          <mxGeometry x="591" y="326" width="120" height="30" as="geometry" />
        </mxCell>
        <mxCell id="6nhi8PqKssiMJ2r7n0zs-12" value="Violated" style="rounded=1;whiteSpace=wrap;html=1;fillColor=#f8cecc;strokeColor=#b85450;fontFamily=Lucida Console;fontSize=14;" parent="1" vertex="1">
          <mxGeometry x="591" y="377" width="120" height="30" as="geometry" />
        </mxCell>
        <mxCell id="6nhi8PqKssiMJ2r7n0zs-14" value="Committed transactions \(\mathcal{T}\)" style="text;html=1;align=center;verticalAlign=middle;whiteSpace=wrap;rounded=0;fontSize=18;fontFamily=Lucida Console;" parent="1" vertex="1">
          <mxGeometry x="100.5" y="255" width="254.5" height="30" as="geometry" />
        </mxCell>
        <mxCell id="648LUeA0mLOMaWqOP56g-1" value="$$T_3$$" style="rounded=1;whiteSpace=wrap;html=1;" vertex="1" parent="1">
          <mxGeometry x="180" y="313" width="40" height="40" as="geometry" />
        </mxCell>
        <mxCell id="648LUeA0mLOMaWqOP56g-2" value="$$T_1$$" style="rounded=1;whiteSpace=wrap;html=1;" vertex="1" parent="1">
          <mxGeometry x="143" y="370" width="40" height="40" as="geometry" />
        </mxCell>
        <mxCell id="648LUeA0mLOMaWqOP56g-3" value="$$T_4$$" style="rounded=1;whiteSpace=wrap;html=1;" vertex="1" parent="1">
          <mxGeometry x="254" y="342.5" width="40" height="40" as="geometry" />
        </mxCell>
        <mxCell id="648LUeA0mLOMaWqOP56g-4" value="$$T_2$$" style="rounded=1;whiteSpace=wrap;html=1;" vertex="1" parent="1">
          <mxGeometry x="220" y="397.5" width="40" height="40" as="geometry" />
        </mxCell>
      </root>
    </mxGraphModel>
  </diagram>
</mxfile>
